<?xml version="1.0" encoding="utf-8"?>
<!-- Generator: Adobe Illustrator 25.2.1, SVG Export Plug-In . SVG Version: 6.00 Build 0)  -->
<svg version="1.1" xmlns="http://www.w3.org/2000/svg" xmlns:xlink="http://www.w3.org/1999/xlink" x="0px" y="0px"
	 viewBox="0 0 1920 1080" style="enable-background:new 0 0 1920 1080;" xml:space="preserve">
<style type="text/css">
	.st0{fill-rule:evenodd;clip-rule:evenodd;fill:#FFFFFF;}
	.st1{fill:none;}
	.st2{fill:#FFFFFF;}
	.st3{fill-rule:evenodd;clip-rule:evenodd;fill:none;}
</style>
<g id="Camada_1">
</g>
<g id="Modo_de_isolamento">
	<g id="Primária_Negativo_1_">
		<g id="Marca_1_">
			<path class="st0" d="M133.1,664.9c28.4,0,52.9-6.8,73.8-20.2v-40c-19.4,15.5-43.6,23-72,23c-27,0-49.3-8.6-67.3-26.3
				c-17.6-17.6-26.6-40.3-26.6-67.3c0-27,8.6-49.3,26.3-67c17.6-17.6,40-26.6,66.2-26.6c24.8,0,47.5,6.5,68,19.8v-40
				c-19.8-11.2-42.5-16.9-68.4-16.9c-38.2,0-69.8,12.2-95,37.1c-25.2,24.5-37.8,55.8-37.8,93.6s12.6,69.1,37.8,94
				C63.6,652.6,95.3,664.9,133.1,664.9L133.1,664.9z"/>
			<path class="st0" d="M331.4,630.7c-16.9,0-30.6-5.8-41.8-16.9c-11.2-11.2-16.6-25.2-16.6-42.1c0-16.6,5.4-30.6,16.6-41.8
				c11.2-11.2,25.2-16.9,41.8-16.9c16.6,0,30.2,5.8,41.4,16.9c11.2,11.2,16.6,25.2,16.6,41.8c0,16.9-5.4,31-16.6,42.1
				C361.7,624.9,348,630.7,331.4,630.7L331.4,630.7z M331.4,664.9c28.1,0,51.1-9,69.5-27c18.4-18.4,27.4-40.3,27.4-66.2
				c0-25.9-9-47.9-27.4-65.9c-18.4-18-41.4-27-69.5-27c-28.4,0-51.5,9-69.8,27c-18.4,18-27.4,40-27.4,65.9c0,26.3,9,48.2,27.4,66.2
				C280,655.9,303,664.9,331.4,664.9L331.4,664.9z"/>
			<path class="st0" d="M494.5,543.9c10.1-16.2,30.2-28.8,50-28.8c23,0,41.4,11.2,41.4,45.7v99.4h38.9v-108
				c0-45.7-23.8-73.4-65.5-73.4c-25.9,0-47.5,9.4-64.8,28.1v-23.4h-38.9v176.8h38.9V543.9L494.5,543.9z"/>
			<path class="st0" d="M687.4,612c0,34.6,20.9,52.9,54,52.9c17.6,0,31-2.9,39.2-8.6v-33.5c-8.3,4.3-16.9,6.5-26.6,6.5
				c-18.7,0-27.7-8.3-27.7-28.4v-83.2h55.8v-34.2h-55.8V432h-38.9v51.5h-37.8v34.2h37.8V612L687.4,612z"/>
			<path class="st0" d="M851.9,660.2V551.8c8.3-18.4,30.2-34.6,58-34.6c4,0,7.6,0.4,10.8,0.7v-38.9c-1.1-0.4-2.2-0.4-3.6-0.4
				c-27.4,0-53.3,14.8-65.2,35.3v-30.6H813v176.8H851.9L851.9,660.2z"/>
			<path class="st0" d="M1031.2,630.7c-16.9,0-30.6-5.8-41.8-16.9c-11.2-11.2-16.6-25.2-16.6-42.1c0-16.6,5.4-30.6,16.6-41.8
				c11.2-11.2,25.2-16.9,41.8-16.9c16.6,0,30.2,5.8,41.4,16.9c11.2,11.2,16.6,25.2,16.6,41.8c0,16.9-5.4,31-16.6,42.1
				C1061.4,624.9,1047.8,630.7,1031.2,630.7L1031.2,630.7z M1031.2,664.9c28.1,0,51.1-9,69.5-27c18.4-18.4,27.4-40.3,27.4-66.2
				c0-25.9-9-47.9-27.4-65.9c-18.4-18-41.4-27-69.5-27c-28.4,0-51.5,9-69.8,27c-18.4,18-27.4,40-27.4,65.9c0,26.3,9,48.2,27.4,66.2
				C979.7,655.9,1002.8,664.9,1031.2,664.9L1031.2,664.9z"/>
			<polygon class="st0" points="1194.2,607.6 1194.2,531.2 1194.2,420.2 1194.2,408.2 1155.4,408.2 1155.4,531.2 1155.4,618.4 
				1155.4,664.7 1194.2,664.7 1194.2,607.6 			"/>
			<g>
				<path class="st1" d="M1637.2,638.2c13.3,17.6,33.1,26.6,59,26.6c24.5,0,44.6-9,60.5-27c16.2-18.4,24.1-40.7,24.1-67.7
					c0-26.6-7.9-49-24.1-67c-15.8-18.4-36-27.4-60.5-27.4c-25.6,0-45,9-59,26.6v-94.3h-50.8v252h50.8V638.2z M1637.2,546.8
					c8.3-15.5,24.8-26.6,44.6-26.6c14,0,25.9,4.7,34.9,14.4c9,9.7,13.7,21.6,13.7,35.6c0,14.4-4.7,26.3-13.7,36
					c-9,9.7-20.9,14.4-34.9,14.4c-19.8,0-36.4-11.5-44.6-27V546.8z"/>
				<path class="st1" d="M1283.5,615.2v49.6h45.4c0.5,0,1.1,0,1.6,0c-18.4-19.2-34.4-41.1-47-65.4V615.2z"/>
				<path class="st1" d="M1334.3,601.9v-58.5V420.2v-12h-50.8v135.2v43.4c12.9,27.5,30.2,52.4,50.8,73.8V601.9z"/>
				<path class="st1" d="M1430.4,664.9c25.6,0,46.1-8.3,61.9-24.5c6.8,15.5,20.2,23,40.7,23c11.9,0,20.9-2.5,27.4-7.6v-37.1
					c-2.5,1.4-6.1,2.2-10.4,2.2c-8.3,0-12.6-4.7-12.6-13.7v-60.8c0-22-7.9-39.2-23.8-51.8c-15.5-12.6-36.4-18.7-61.9-18.7
					c-26.3,0-48.2,4.7-66.6,14.4v42.5c16.9-10.1,35.3-15.1,54.4-15.1c31.7,0,47.5,11.2,47.5,33.8v5.4c-14.4-7.6-31.7-11.2-51.8-11.2
					c-19.4,0-36,5-50,15.1c-14,10.1-20.9,24.8-20.9,43.9C1364.1,641.1,1391.5,664.9,1430.4,664.9z M1449.5,578.8
					c14.8,0,27,3.6,37.4,10.4v18c-9.4,12.2-23,18.4-40.7,18.4c-18.7,0-32-7.6-32-23.4C1414.2,587.5,1427.9,578.8,1449.5,578.8z"/>
				<path class="st2" d="M1681.8,620.6c14,0,25.9-4.7,34.9-14.4c9-9.7,13.7-21.6,13.7-36c0-14-4.7-25.9-13.7-35.6
					c-9-9.7-20.9-14.4-34.9-14.4c-19.8,0-36.4,11.2-44.6,26.6v46.8C1645.4,609.1,1662,620.6,1681.8,620.6z"/>
				<path class="st2" d="M1446.2,625.6c17.6,0,31.3-6.1,40.7-18.4v-18c-10.4-6.8-22.7-10.4-37.4-10.4c-21.6,0-35.3,8.6-35.3,23.4
					C1414.2,618.1,1427.5,625.6,1446.2,625.6z"/>
				<path d="M1919.9,361.6c0,0.4,0,0.7,0,1.1c0,0,0,0,0,0c0,0,0-0.1,0-0.1C1919.9,362.2,1919.9,361.8,1919.9,361.6
					C1919.9,361.5,1919.9,361.5,1919.9,361.6z"/>
				<g>
					<path class="st2" d="M1919.9,361.6c-2.9,28.5-8.9,58.4-19.1,89.4c-38.6,117.7-122.5,232.3-263.8,284.9
						c-32.5,12.1-65.8,17.8-98.6,17.8c-78.5,0-154-32.7-207.9-88.8c-0.5,0-1.1,0-1.6,0h-45.4v-49.6v-15.7
						c-5.3-10.2-10.1-20.8-14.1-31.8c-24.6-66.2-23.7-130.8-5-187.5l0,0c-30.6,43.4-49.5,97.3-49.5,159.7
						c0,151.5,124.6,277.8,277.8,277.8c146.5,0,261.6-75.9,336.7-170c85-106.5,92.8-221.1,90.7-284.9
						C1919.9,362.3,1919.9,361.9,1919.9,361.6z"/>
					<path class="st2" d="M1274.9,366.1l-5.2,15.7c-19.5,59.3-17.8,122.9,4.9,184c2.7,7.2,5.6,14.2,8.9,21v-43.4V408.2h50.8v12
						v123.1v58.5v58.7c52.2,54.5,125.6,87.5,204.2,87.5c33,0,65.6-5.9,96.7-17.4c166.5-62,234.6-202.9,260.4-281.4
						c9.5-28.9,15.8-58.6,18.8-88.3l2.8-28.1c-3.7-8.2-14.6-13.6-23.6-9.7c-40.5,17.6-135.6,44.2-243.6-13.9
						c-55-29.6-98.4-47.2-157.3-47.2C1410.8,262.1,1328.5,299.9,1274.9,366.1L1274.9,366.1z M1586.4,408.2h50.8v94.3
						c14-17.6,33.5-26.6,59-26.6c24.5,0,44.6,9,60.5,27.4c16.2,18,24.1,40.3,24.1,67c0,27-7.9,49.3-24.1,67.7
						c-15.8,18-36,27-60.5,27c-25.9,0-45.7-9-59-26.6v22h-50.8V408.2z M1385,560.8c14-10.1,30.6-15.1,50-15.1
						c20.2,0,37.4,3.6,51.8,11.2v-5.4c0-22.7-15.8-33.8-47.5-33.8c-19.1,0-37.4,5-54.4,15.1v-42.5c18.4-9.7,40.3-14.4,66.6-14.4
						c25.6,0,46.4,6.1,61.9,18.7c15.8,12.6,23.8,29.9,23.8,51.8v60.8c0,9,4.3,13.7,12.6,13.7c4.3,0,7.9-0.7,10.4-2.2v37.1
						c-6.5,5-15.5,7.6-27.4,7.6c-20.5,0-33.8-7.6-40.7-23c-15.8,16.2-36.4,24.5-61.9,24.5c-38.9,0-66.2-23.8-66.2-60.1
						C1364.1,585.7,1371,570.9,1385,560.8z"/>
				</g>
			</g>
			<g>
				<path class="st0" d="M1920,362.7c0-0.4,0-0.7,0-1.1c-2.9,28.5-8.9,58.4-19.1,89.4c-38.6,117.7-122.5,232.3-263.8,284.9
					c-32.5,12.1-65.8,17.8-98.6,17.8c-116.5,0-226.6-72-269.1-186c-24.6-66.2-23.7-130.8-5-187.5c0,0,0,0,0,0
					c-30.6,43.4-49.5,97.3-49.5,159.7c0,151.5,124.6,277.8,277.8,277.8c146.5,0,261.6-75.9,336.7-170
					C1914.3,541.1,1922.2,426.5,1920,362.7z"/>
				<path class="st0" d="M1920,362.6c0-0.4,0-0.8,0-1.1c0,0,0,0,0,0C1919.9,361.9,1919.9,362.3,1920,362.6z"/>
				<path class="st3" d="M1274.9,366.1l-5.2,15.7c-19.5,59.3-17.8,122.9,4.9,184c40.6,109.1,146.6,182.4,263.8,182.4
					c33,0,65.6-5.9,96.7-17.4c166.5-62,234.6-202.9,260.4-281.4c9.5-28.9,15.8-58.6,18.8-88.3l2.8-28.1c0,0,0,0,0,0
					c-3.7-8.2-14.6-13.6-23.6-9.7c-40.5,17.6-135.6,44.2-243.6-13.9c-55-29.6-98.4-47.2-157.3-47.2
					C1410.8,262.1,1328.5,299.9,1274.9,366.1C1274.9,366.1,1274.9,366.1,1274.9,366.1z"/>
			</g>
		</g>
		<path id="Slogan_1_" class="st2" d="M1.5,812.9h57.1V801H14.6v-70.8H1.5V812.9L1.5,812.9z M122.6,803c-2.8,0-4.8-2.1-4.8-5.8
			v-21.6c0-14.6-11.2-22.2-26.8-22.2c-10.2,0-17,2.6-21.1,5v11.2c4.4-2.7,11.6-5.2,18.3-5.2c9,0,17,2.6,17,12.6v3.2
			c-4-2.2-9.8-4.5-18.5-4.5c-12.3,0-23.3,6.4-23.3,19.3c0,12.4,9.6,19.5,21.7,19.5c10.2,0,17.2-4.3,21.4-9c1.7,5.8,6.5,8.3,12.2,8.3
			c2.5,0,5.7-0.6,7.4-1.9v-9.7C125,802.8,123.7,803,122.6,803L122.6,803z M105.1,796.5c-3.3,3.7-9.6,7-16.5,7
			c-7,0-12.5-2.8-12.5-9.2c0-5.7,5.2-9,13.6-9c6.3,0,11.7,2,15.5,4.1V796.5L105.1,796.5z M159.6,814.5c10,0,16.9-4.5,20.7-9.5v7.9
			H193v-82.7h-12.8v32.6c-3.8-5-10.6-9.4-20.7-9.4c-16.7,0-28.1,13.7-28.1,30.5C131.5,800.6,143,814.5,159.6,814.5L159.6,814.5z
			 M163,803.2c-10.9,0-18.7-8.6-18.7-19.4c0-10.6,7.8-19.3,18.7-19.3c7.9,0,14.3,4.7,17.2,10.3v18C177.3,798.6,171,803.2,163,803.2
			L163,803.2z M236,803.2c-11,0-19.1-8.4-19.1-19.4c0-10.8,8.2-19.3,19.1-19.3c11,0,19,8.5,19,19.3C255,794.9,247,803.2,236,803.2
			L236,803.2z M236,814.5c18.8,0,31.8-13.8,31.8-30.6c0-16.7-13-30.5-31.8-30.5c-18.9,0-31.9,13.8-31.9,30.5
			C204.1,800.6,217.1,814.5,236,814.5L236,814.5z M363.9,803c-2.8,0-4.8-2.1-4.8-5.8v-21.6c0-14.6-11.2-22.2-26.8-22.2
			c-10.2,0-17,2.6-21.1,5v11.2c4.4-2.7,11.6-5.2,18.3-5.2c9,0,17,2.6,17,12.6v3.2c-4-2.2-9.8-4.5-18.5-4.5
			c-12.3,0-23.3,6.4-23.3,19.3c0,12.4,9.6,19.5,21.7,19.5c10.2,0,17.2-4.3,21.4-9c1.7,5.8,6.5,8.3,12.2,8.3c2.5,0,5.7-0.6,7.4-1.9
			v-9.7C366.3,802.8,365,803,363.9,803L363.9,803z M346.5,796.5c-3.3,3.7-9.6,7-16.5,7c-7,0-12.5-2.8-12.5-9.2c0-5.7,5.2-9,13.6-9
			c6.3,0,11.7,2,15.5,4.1V796.5L346.5,796.5z M422.2,814.5c3.4,0,6.9-0.6,9.5-1.9v-11c-1.3,0.7-3.2,1.2-4.8,1.2
			c-3.8,0-6.4-2.1-6.4-7.1v-65.4h-12.8v69C407.7,811.3,415,814.5,422.2,814.5L422.2,814.5z M495.3,803c-2.8,0-4.8-2.1-4.8-5.8v-21.6
			c0-14.6-11.2-22.2-26.8-22.2c-10.2,0-17,2.6-21.1,5v11.2c4.4-2.7,11.6-5.2,18.3-5.2c9,0,17,2.6,17,12.6v3.2
			c-4-2.2-9.8-4.5-18.5-4.5c-12.3,0-23.3,6.4-23.3,19.3c0,12.4,9.6,19.5,21.7,19.5c10.2,0,17.2-4.3,21.4-9c1.7,5.8,6.5,8.3,12.2,8.3
			c2.5,0,5.7-0.6,7.4-1.9v-9.7C497.6,802.8,496.3,803,495.3,803L495.3,803z M477.8,796.5c-3.3,3.7-9.6,7-16.5,7
			c-7,0-12.5-2.8-12.5-9.2c0-5.7,5.2-9,13.6-9c6.3,0,11.7,2,15.5,4.1V796.5L477.8,796.5z M532.3,814.5c10,0,16.9-4.5,20.7-9.5v7.9
			h12.8v-82.7H553v32.6c-3.8-5-10.6-9.4-20.7-9.4c-16.7,0-28.1,13.7-28.1,30.5C504.2,800.6,515.6,814.5,532.3,814.5L532.3,814.5z
			 M535.7,803.2c-10.9,0-18.7-8.6-18.7-19.4c0-10.6,7.8-19.3,18.7-19.3c7.9,0,14.3,4.7,17.2,10.3v18
			C550,798.6,543.6,803.2,535.7,803.2L535.7,803.2z M608.6,803.2c-11,0-19.1-8.4-19.1-19.4c0-10.8,8.2-19.3,19.1-19.3
			c11,0,19,8.5,19,19.3C627.7,794.9,619.6,803.2,608.6,803.2L608.6,803.2z M608.6,814.5c18.8,0,31.8-13.8,31.8-30.6
			c0-16.7-13-30.5-31.8-30.5c-18.9,0-31.9,13.8-31.9,30.5C576.7,800.6,589.7,814.5,608.6,814.5L608.6,814.5z M709.3,814.5
			c7.7,0,12.9-1.3,18.7-4.4v-14.2c-5,2.8-9.6,4-15.9,4c-10,0-18.3-6.5-18.3-16.5c0-10,8.3-16.4,18.3-16.4c5.7,0,9.9,1.2,15,3.5
			v-14.2c-5.4-2.7-10.4-3.9-17.5-3.9c-16.9,0-32.3,11.5-32.3,30.8C677.3,802.8,692.7,814.5,709.3,814.5L709.3,814.5z M766.8,799.9
			c-9.5,0-16.3-7.1-16.3-16.5c0-9.3,6.9-16.4,16.3-16.4c9.5,0,16.3,7.1,16.3,16.4C783.1,792.8,776.3,799.9,766.8,799.9L766.8,799.9z
			 M766.8,814.5c19.3,0,32.7-13.7,32.7-31.1c0-17.1-13.5-30.9-32.7-30.9c-19.4,0-32.7,13.8-32.7,30.9
			C734.1,800.8,747.5,814.5,766.8,814.5L766.8,814.5z M808.9,812.9h16.7v-37.4c2.2-4.3,7.3-7.8,12.4-7.8c4.1,0,9.8,1.8,9.8,12.2
			v33.1h16.7v-37.2c2.1-4.4,7.1-8,12.3-8c4.1,0,9.8,1.7,9.8,12.2v33.1h16.7v-36.9c0-15.9-8.9-23.6-21-23.6c-9,0-16.5,4.6-20.3,10
			c-2.4-5.1-9-10-18.3-10c-8.3,0-14.4,4-18,8.7V754h-16.7V812.9L808.9,812.9z M964.5,813.4h15.1l25.6-59.5h-17.4l-15.5,38.4
			l-15.6-38.4h-18L964.5,813.4L964.5,813.4z M1039.7,799.9c-9.5,0-16.3-7.1-16.3-16.5c0-9.3,6.9-16.4,16.3-16.4
			c9.5,0,16.3,7.1,16.3,16.4C1056.1,792.8,1049.2,799.9,1039.7,799.9L1039.7,799.9z M1039.7,814.5c19.3,0,32.7-13.7,32.7-31.1
			c0-17.1-13.5-30.9-32.7-30.9c-19.4,0-32.7,13.8-32.7,30.9C1007,800.8,1020.4,814.5,1039.7,814.5L1039.7,814.5z M1109.9,814.5
			c7.7,0,12.9-1.3,18.7-4.4v-14.2c-5,2.8-9.6,4-15.9,4c-10,0-18.3-6.5-18.3-16.5c0-10,8.3-16.4,18.3-16.4c5.7,0,9.9,1.2,15,3.5
			v-14.2c-5.4-2.7-10.4-3.9-17.5-3.9c-16.9,0-32.3,11.5-32.3,30.8C1077.9,802.8,1093.2,814.5,1109.9,814.5L1109.9,814.5z
			 M1167.4,814.5c9.1,0,17.6-2.4,22.4-6v-13.3c-5.3,3.1-11.8,5.2-18.9,5.2c-10,0-18-3.9-19.7-12.3h42.3v-4.4
			c0-16.8-10.3-31.2-28.1-31.2c-18.7,0-30.7,13.8-30.7,30.9C1134.7,802.7,1149.6,814.5,1167.4,814.5L1167.4,814.5z M1151.2,777.4
			c0.7-6.7,5.7-11.8,13.5-11.8c7.7,0,12.2,5.7,12.4,11.8H1151.2L1151.2,777.4z M1142.1,745.6h14.3l7.8-9.2l7.8,9.2h14.6l-14.1-17.2
			h-16.1L1142.1,745.6L1142.1,745.6z"/>
	</g>
</g>
</svg>
